<?xml version="1.0"?>
<svg width="119.99999999999999" height="24.000000000000004" xmlns="http://www.w3.org/2000/svg" xmlns:svg="http://www.w3.org/2000/svg">
 <defs>
  <clipPath id="a">
   <path d="m0,0l24,0l0,22l-24,0l0,-22z" fill="#fff" id="svg_1" transform="translate(0 1)"/>
  </clipPath>
  <clipPath id="b">
   <path d="m0,0l24,0l0,22l-24,0l0,-22z" fill="#fff" id="svg_2" transform="translate(24 1)"/>
  </clipPath>
  <clipPath id="c">
   <path d="m0,0l24,0l0,22l-24,0l0,-22z" fill="#fff" id="svg_3" transform="translate(48 1)"/>
  </clipPath>
  <clipPath id="d">
   <path d="m0,0l24,0l0,22l-24,0l0,-22z" fill="#fff" id="svg_4" transform="translate(72 1)"/>
  </clipPath>
  <clipPath id="e">
   <path d="m0,0l24,0l0,22l-24,0l0,-22z" fill="#fff" id="svg_5" transform="translate(96 1)"/>
  </clipPath>
 </defs>
 <g class="layer">
  <title>Layer 1</title>
  <g clip-path="url(#a)" id="svg_6">
   <path clip-rule="evenodd" d="m16.51,6.6l-1.82,-3.69c-1.1,-2.23 -4.28,-2.23 -5.38,0l-1.82,3.69l-4.08,0.6c-2.46,0.35 -3.45,3.38 -1.67,5.11l2.95,2.88l-0.69,4.06c-0.42,2.45 2.15,4.32 4.35,3.17l3.65,-1.92l3.65,1.91c2.2,1.16 4.77,-0.71 4.35,-3.16l-0.7,-4.06l2.96,-2.88c1.78,-1.73 0.79,-4.76 -1.67,-5.12l-4.08,-0.59zm-3.61,-2.81a1,1 0 0 0 -1.8,0l-2.05,4.17a1,1 0 0 1 -0.76,0.55l-4.6,0.66a1,1 0 0 0 -0.55,1.71l3.33,3.25a1,1 0 0 1 0.28,0.88l-0.78,4.58a1,1 0 0 0 1.45,1.05l4.11,-2.16a1,1 0 0 1 0.93,0l4.12,2.16a1,1 0 0 0 1.45,-1.05l-0.79,-4.58a1,1 0 0 1 0.29,-0.88l3.33,-3.25a1,1 0 0 0 -0.55,-1.71l-4.6,-0.66a1,1 0 0 1 -0.76,-0.55l-2.05,-4.17z" fill="#fff" fill-rule="evenodd" id="svg_7"/>
   <path d="m11.1,3.79a1,1 0 0 1 1.79,0l2.06,4.17a1,1 0 0 0 0.75,0.55l4.6,0.66a1,1 0 0 1 0.56,1.71l-3.33,3.25a1,1 0 0 0 -0.29,0.88l0.79,4.58a1,1 0 0 1 -1.45,1.05l-4.12,-2.16a1,1 0 0 0 -0.93,0l-4.11,2.16a1,1 0 0 1 -1.45,-1.05l0.78,-4.58a1,1 0 0 0 -0.29,-0.88l-3.32,-3.25a1,1 0 0 1 0.55,-1.71l4.6,-0.66a1,1 0 0 0 0.75,-0.55l2.06,-4.17z" fill="#FC0" id="svg_8" stroke="#000" stroke-linecap="round" stroke-linejoin="round" stroke-width="1.5"/>
  </g>
  <g clip-path="url(#b)" id="svg_9">
   <path clip-rule="evenodd" d="m40.51,6.6l-1.82,-3.69c-1.1,-2.23 -4.28,-2.23 -5.38,0l-1.82,3.69l-4.08,0.6c-2.46,0.35 -3.45,3.38 -1.67,5.11l2.95,2.88l-0.69,4.06c-0.42,2.45 2.15,4.32 4.35,3.17l3.65,-1.92l3.65,1.91c2.2,1.16 4.77,-0.71 4.35,-3.16l-0.7,-4.06l2.96,-2.88c1.78,-1.73 0.79,-4.76 -1.67,-5.12l-4.08,-0.59zm-3.61,-2.81a1,1 0 0 0 -1.8,0l-2.05,4.17a1,1 0 0 1 -0.76,0.55l-4.6,0.66a1,1 0 0 0 -0.55,1.71l3.33,3.25a1,1 0 0 1 0.29,0.88l-0.79,4.58a1,1 0 0 0 1.45,1.05l4.11,-2.16a1,1 0 0 1 0.93,0l4.12,2.16a1,1 0 0 0 1.45,-1.05l-0.79,-4.58a1,1 0 0 1 0.29,-0.88l3.33,-3.25a1,1 0 0 0 -0.55,-1.71l-4.6,-0.66a1,1 0 0 1 -0.76,-0.55l-2.05,-4.17z" fill="#fff" fill-rule="evenodd" id="svg_10"/>
   <path d="m35.1,3.79a1,1 0 0 1 1.79,0l2.06,4.17a1,1 0 0 0 0.75,0.55l4.6,0.66a1,1 0 0 1 0.56,1.71l-3.33,3.25a1,1 0 0 0 -0.29,0.88l0.79,4.58a1,1 0 0 1 -1.45,1.05l-4.12,-2.16a1,1 0 0 0 -0.93,0l-4.11,2.16a1,1 0 0 1 -1.45,-1.05l0.78,-4.58a1,1 0 0 0 -0.29,-0.88l-3.32,-3.25a1,1 0 0 1 0.55,-1.71l4.6,-0.66a1,1 0 0 0 0.75,-0.55l2.06,-4.17z" fill="#FC0" id="svg_11" stroke="#000" stroke-linecap="round" stroke-linejoin="round" stroke-width="1.5"/>
  </g>
  <g clip-path="url(#c)" id="svg_12" transform="matrix(1 0 0 1 0 0)">
   <path clip-rule="evenodd" d="m64.51,6.6l-1.82,-3.69c-1.1,-2.23 -4.28,-2.23 -5.38,0l-1.82,3.69l-4.08,0.6c-2.46,0.35 -3.45,3.38 -1.67,5.11l2.96,2.88l-0.7,4.06c-0.42,2.45 2.15,4.32 4.35,3.17l3.65,-1.92l3.65,1.91c2.2,1.16 4.77,-0.71 4.35,-3.16l-0.7,-4.06l2.96,-2.88c1.78,-1.73 0.79,-4.76 -1.67,-5.12l-4.08,-0.59zm-3.61,-2.81a1,1 0 0 0 -1.8,0l-2.05,4.17a1,1 0 0 1 -0.76,0.55l-4.6,0.66a1,1 0 0 0 -0.55,1.71l3.33,3.25a1,1 0 0 1 0.29,0.88l-0.79,4.58a1,1 0 0 0 1.45,1.05l4.11,-2.16a1,1 0 0 1 0.93,0l4.12,2.16a1,1 0 0 0 1.45,-1.05l-0.79,-4.58a1,1 0 0 1 0.29,-0.88l3.33,-3.25a1,1 0 0 0 -0.55,-1.71l-4.6,-0.66a1,1 0 0 1 -0.76,-0.55l-2.05,-4.17z" fill="#fff" fill-rule="evenodd" id="svg_13"/>
   <path d="m59.1,3.79a1,1 0 0 1 1.79,0l2.06,4.17a1,1 0 0 0 0.75,0.55l4.6,0.66a1,1 0 0 1 0.56,1.71l-3.33,3.25a1,1 0 0 0 -0.29,0.88l0.79,4.58a1,1 0 0 1 -1.45,1.05l-4.12,-2.16a1,1 0 0 0 -0.93,0l-4.11,2.16a1,1 0 0 1 -1.45,-1.05l0.78,-4.58a1,1 0 0 0 -0.28,-0.88l-3.33,-3.25a1,1 0 0 1 0.55,-1.71l4.6,-0.66a1,1 0 0 0 0.75,-0.55l2.06,-4.17z" fill="#FC0" id="svg_14" stroke="#000" stroke-linecap="round" stroke-linejoin="round" stroke-width="1.5"/>
  </g>
  <g clip-path="url(#d)" id="svg_15">
   <path clip-rule="evenodd" d="m88.51,6.6l-1.82,-3.69c-1.1,-2.23 -4.28,-2.23 -5.38,0l-1.82,3.69l-4.08,0.6c-2.46,0.35 -3.45,3.38 -1.67,5.11l2.96,2.88l-0.7,4.06c-0.42,2.45 2.15,4.32 4.35,3.17l3.65,-1.92l3.65,1.91c2.2,1.16 4.77,-0.71 4.35,-3.16l-0.7,-4.06l2.96,-2.88c1.78,-1.73 0.79,-4.76 -1.67,-5.12l-4.08,-0.59zm-3.61,-2.81a1,1 0 0 0 -1.8,0l-2.05,4.17a1,1 0 0 1 -0.76,0.55l-4.6,0.66a1,1 0 0 0 -0.55,1.71l3.33,3.25a1,1 0 0 1 0.28,0.88l-0.78,4.58a1,1 0 0 0 1.45,1.05l4.11,-2.16a1,1 0 0 1 0.93,0l4.12,2.16a1,1 0 0 0 1.45,-1.05l-0.79,-4.58a1,1 0 0 1 0.29,-0.88l3.33,-3.25a1,1 0 0 0 -0.55,-1.71l-4.6,-0.66a1,1 0 0 1 -0.76,-0.55l-2.05,-4.17z" fill="#fff" fill-rule="evenodd" id="svg_16"/>
   <path d="m83.1,3.79a1,1 0 0 1 1.79,0l2.06,4.17a1,1 0 0 0 0.75,0.55l4.6,0.66a1,1 0 0 1 0.56,1.71l-3.33,3.25a1,1 0 0 0 -0.29,0.88l0.79,4.58a1,1 0 0 1 -1.45,1.05l-4.12,-2.16a1,1 0 0 0 -0.93,0l-4.11,2.16a1,1 0 0 1 -1.45,-1.05l0.78,-4.58a1,1 0 0 0 -0.28,-0.88l-3.33,-3.25a1,1 0 0 1 0.55,-1.71l4.6,-0.66a1,1 0 0 0 0.75,-0.55l2.06,-4.17z" fill="#FC0" id="svg_17" stroke="#000" stroke-linecap="round" stroke-linejoin="round" stroke-width="1.5"/>
  </g>
  <g clip-path="url(#e)" id="svg_18">
   <path clip-rule="evenodd" d="m112.51,6.6l-1.82,-3.69c-1.1,-2.23 -4.28,-2.23 -5.38,0l-1.82,3.69l-4.08,0.6c-2.46,0.35 -3.45,3.38 -1.67,5.11l2.96,2.88l-0.7,4.06c-0.42,2.45 2.15,4.32 4.35,3.17l3.65,-1.92l3.65,1.92c2.2,1.15 4.77,-0.72 4.35,-3.17l-0.7,-4.06l2.96,-2.88c1.78,-1.73 0.79,-4.76 -1.67,-5.11l-4.08,-0.6zm-3.61,-2.81a1,1 0 0 0 -1.8,0l-2.05,4.17a1,1 0 0 1 -0.76,0.55l-4.6,0.66a1,1 0 0 0 -0.55,1.71l3.33,3.25a1,1 0 0 1 0.28,0.88l-0.78,4.58a1,1 0 0 0 1.45,1.05l4.11,-2.16c0.3,-0.15 0.64,-0.15 0.93,0l4.12,2.16a1,1 0 0 0 1.45,-1.05l-0.79,-4.58a1,1 0 0 1 0.29,-0.88l3.33,-3.25a1,1 0 0 0 -0.55,-1.71l-4.6,-0.66a1,1 0 0 1 -0.76,-0.55l-2.05,-4.17z" fill="#fff" fill-rule="evenodd" id="svg_19"/>
   <path d="m107.1,3.88a1,1 0 0 1 1.79,0l2.06,4.17c0.15,0.29 0.43,0.5 0.75,0.55l4.6,0.66a1,1 0 0 1 0.56,1.71l-3.33,3.25a1,1 0 0 0 -0.29,0.88l0.79,4.58a1,1 0 0 1 -1.45,1.05l-4.12,-2.16a1,1 0 0 0 -0.93,0l-4.11,2.16a1,1 0 0 1 -1.45,-1.05l0.78,-4.58a1,1 0 0 0 -0.28,-0.88l-3.33,-3.25a1,1 0 0 1 0.55,-1.71l4.6,-0.66a1,1 0 0 0 0.75,-0.55l2.06,-4.17z" fill="#ffffff" id="svg_20" stroke="#000" stroke-linecap="round" stroke-linejoin="round" stroke-width="1.5"/>
  </g>
 </g>
</svg>